Coordinates
version=1
nRows=11
nColumns=36
inDegrees=yes

Units are S.I. units (second, meters, Newtons, ...)
If the header above contains a line with 'inDegrees', this indicates whether rotational values are in degrees (yes) or radians (no).

endheader
time	pelvis_tilt	pelvis_list	pelvis_rotation	pelvis_tx	pelvis_ty	pelvis_tz	hip_flexion_r	hip_adduction_r	hip_rotation_r	knee_angle_r	knee_angle_r_beta	ankle_angle_r	subtalar_angle_r	mtp_angle_r	hip_flexion_l	hip_adduction_l	hip_rotation_l	knee_angle_l	knee_angle_l_beta	ankle_angle_l	subtalar_angle_l	mtp_angle_l	lumbar_extension	lumbar_bending	lumbar_rotation	arm_flex_r	arm_add_r	arm_rot_r	elbow_flex_r	pro_sup_r	arm_flex_l	arm_add_l	arm_rot_l	elbow_flex_l	pro_sup_l
      5.00000000	     -1.62368931	      0.11480819	     -2.04444400	      0.35901262	      0.92404911	     -0.10644852	     -4.01232587	     -5.27806360	     -9.27135772	      1.09540880	      0.01911849	     -1.35927358	    -14.92653496	     -7.49999987	     -3.99739610	     -6.39848377	    -11.06243842	      0.83278021	      0.01453476	      2.83855209	      1.24227287	     -7.49999987	     -3.75154220	     -0.18128267	     -0.41395655	      2.02731084	     -6.78541735	      4.37927669	     25.63850267	     75.88293536	      1.24845400	     -9.79952519	     15.65072044	     27.57086999	     82.81486167
      5.00416670	     -1.55039616	      0.11176093	     -2.02721463	      0.35794632	      0.92685954	     -0.10632824	     -4.09230659	     -5.31142569	     -9.19773898	      1.09409656	      0.01909559	     -1.56226600	    -15.32320685	     -7.49999987	     -4.07885602	     -6.37182540	    -10.97315635	      0.81452543	      0.01421615	      2.81579072	      0.98115924	     -7.49999987	     -3.82859165	     -0.14213598	     -0.43186610	      2.11843296	     -6.93454981	      5.62860396	     25.55602581	     70.99463829	      1.34596304	     -9.87736892	     17.11030712	     27.61694929	     76.32205596
      5.00833330	     -1.53391452	      0.10234961	     -1.97750547	      0.35800122	      0.92728216	     -0.10729094	     -4.10364086	     -5.35228275	     -9.52815478	      1.12590225	      0.01965070	     -1.25845829	    -14.78389606	     -7.49999987	     -4.08621730	     -6.36257128	    -10.94204178	      0.81156134	      0.01416442	      2.87959891	      0.96328515	     -7.49999987	     -3.82880611	     -0.11098358	     -0.42863692	      2.06445257	     -6.89881086	      4.73674807	     25.47283905	     75.00247983	      1.43479484	     -9.77214600	     16.34350792	     27.40011458	     81.88926554
      5.01250000	     -1.37040018	      0.10208109	     -2.01556645	      0.35960185	      0.92760199	     -0.10673278	     -4.27410206	     -5.37894825	     -9.33092154	      1.11243231	      0.01941561	     -1.35263743	    -15.04159661	     -7.49999987	     -4.30012650	     -6.32603913	    -10.87717791	      0.78150217	      0.01363979	      2.85126389	      0.75022260	     -7.49999987	     -4.08700121	     -0.04195006	     -0.38662742	      2.12691567	     -7.02944568	      5.52864041	     25.55809889	     70.63520844	      1.37179601	     -9.81779911	     16.95363255	     27.88947157	     75.98035975
      5.01666670	     -1.45180637	      0.09805149	     -1.99861914	      0.35861721	      0.92610268	     -0.10597769	     -4.16883094	     -5.37710161	     -9.35883329	      1.13643647	      0.01983456	     -1.23588151	    -14.93622514	     -7.49999987	     -4.21474075	     -6.32687526	    -10.98553221	      0.79322347	      0.01384436	      2.99560813	      1.04694177	     -7.49999987	     -3.96410756	     -0.02629884	     -0.35112647	      2.06558732	     -6.92538471	      4.25779764	     25.41001961	     75.67644647	      1.38082087	     -9.64321160	     15.45668716	     27.60598471	     82.81198484
      5.02083330	     -1.40932737	      0.09438154	     -1.94949331	      0.35960977	      0.92730488	     -0.10654707	     -4.23744153	     -5.36371615	     -9.44827232	      1.13143341	      0.01974724	     -1.18614712	    -14.83767758	     -7.49999987	     -4.25880493	     -6.32528593	    -10.82325229	      0.77416403	      0.01351171	      2.95486390	      0.94179793	     -7.49999987	     -4.05033818	      0.01021765	     -0.40245346	      2.08516965	     -6.94943227	      4.21335707	     25.38408004	     75.87326665	      1.35398307	     -9.60868828	     15.15398165	     27.67920242	     83.01222405
      5.02500000	     -1.44429709	      0.07776359	     -1.87665250	      0.35700370	      0.92100706	     -0.10734015	     -4.18049500	     -5.33793284	     -9.32201051	      1.18122447	      0.02061626	     -1.22599957	    -15.22274263	     -7.49999987	     -4.15374841	     -6.31439638	    -10.64733525	      0.79717606	      0.01391335	      3.07153103	      0.70053788	     -7.49999987	     -4.07836858	      0.06791824	     -0.36690992	      2.12327788	     -6.99507104	      4.47265402	     25.36880641	     73.85703462	      1.48655656	     -9.57305106	     15.52383571	     27.67606154	     80.15661824
      5.02916670	     -1.45923045	      0.08534562	     -1.85797433	      0.35772371	      0.92701862	     -0.10514130	     -4.11788665	     -5.31746070	     -9.30111102	      1.23040588	      0.02147463	     -1.17887750	    -15.21675699	     -7.49999987	     -4.09683571	     -6.32316011	    -10.63013212	      0.83898073	      0.01464298	      3.10562008	      0.70195166	     -7.49999987	     -4.13220343	      0.07278199	     -0.37555988	      2.11479939	     -7.01083565	      4.47218937	     25.37797599	     73.86048338	      1.52487066	     -9.61671288	     15.51236625	     27.69558834	     80.15870353
      5.03333330	     -1.36850925	      0.05936237	     -1.83210045	      0.35926849	      0.92453254	     -0.10578689	     -4.22857631	     -5.27437045	     -9.06781975	      1.22439662	      0.02136975	     -1.23479565	    -15.43399166	     -7.49999987	     -4.22240703	     -6.35328925	    -10.48575168	      0.81086444	      0.01415225	      3.06056713	      0.62451395	     -7.49999987	     -4.20301223	      0.10130708	     -0.33461343	      2.08108218	     -7.07076019	      4.96896467	     25.33684209	     72.18077340	      1.56914053	     -9.72835576	     15.96030759	     27.85908863	     77.85807680
      5.03750000	     -1.25312692	      0.02743518	     -1.80484199	      0.35662201	      0.91778487	     -0.10581874	     -4.34627747	     -5.24077459	     -9.02734192	      1.24415563	      0.02171461	     -1.09937141	    -15.46004923	     -7.49999987	     -4.32637378	     -6.40767897	    -10.57765744	      0.82643154	      0.01442395	      3.38294334	      1.03300278	     -7.49999987	     -4.41791997	      0.10437184	     -0.30679163	      1.89696923	     -7.09796712	      4.74864131	     26.03959926	     70.96699620	      1.51368481	     -9.83558417	     15.73369596	     28.50844963	     76.14049870
      5.04166670	     -1.27549134	      0.03029565	     -1.82209411	      0.35825113	      0.92299011	     -0.10714799	     -4.29141812	     -5.28083964	     -9.00099371	      1.31080123	      0.02287780	     -1.06977341	    -15.44808914	     -7.49999987	     -4.28035339	     -6.41785894	    -10.56742067	      0.87536166	      0.01527794	      3.41657871	      0.99514925	     -7.49999987	     -4.41360352	      0.13785164	     -0.33098731	      1.90819562	     -7.11065182	      4.75228697	     26.03453557	     70.98160364	      1.55598224	     -9.83441040	     15.73685588	     28.51743739	     76.15988461
